<mxfile host="app.diagrams.net" agent="Mozilla/5.0 (Windows NT 10.0; Win64; x64) AppleWebKit/537.36 (KHTML, like Gecko) Chrome/131.0.0.0 Safari/537.36" version="24.8.9">
  <diagram name="Página-1" id="coxpb1H5rsoyeDELYJOQ">
    <mxGraphModel dx="1500" dy="773" grid="1" gridSize="10" guides="1" tooltips="1" connect="1" arrows="1" fold="1" page="1" pageScale="1" pageWidth="827" pageHeight="1169" math="0" shadow="0">
      <root>
        <mxCell id="0" />
        <mxCell id="1" parent="0" />
        <mxCell id="l4Ie5-A3Zb9upmFPH6ci-3" value="Registrarse /&amp;nbsp;&lt;div&gt;Iniciar sesión&amp;nbsp;&amp;nbsp;&lt;/div&gt;" style="swimlane;whiteSpace=wrap;html=1;startSize=40;align=right;" vertex="1" parent="1">
          <mxGeometry x="224" y="130" width="380" height="470" as="geometry">
            <mxRectangle x="70" y="120" width="100" height="30" as="alternateBounds" />
          </mxGeometry>
        </mxCell>
        <mxCell id="l4Ie5-A3Zb9upmFPH6ci-5" value="Logo" style="shape=ext;double=1;rounded=0;whiteSpace=wrap;html=1;" vertex="1" parent="l4Ie5-A3Zb9upmFPH6ci-3">
          <mxGeometry width="100" height="40" as="geometry" />
        </mxCell>
        <mxCell id="l4Ie5-A3Zb9upmFPH6ci-6" value="Nombre Marketplace" style="rounded=0;whiteSpace=wrap;html=1;" vertex="1" parent="l4Ie5-A3Zb9upmFPH6ci-3">
          <mxGeometry x="100" width="190" height="40" as="geometry" />
        </mxCell>
        <mxCell id="l4Ie5-A3Zb9upmFPH6ci-7" value="Footer" style="rounded=0;whiteSpace=wrap;html=1;" vertex="1" parent="l4Ie5-A3Zb9upmFPH6ci-3">
          <mxGeometry y="420" width="380" height="50" as="geometry" />
        </mxCell>
        <mxCell id="l4Ie5-A3Zb9upmFPH6ci-8" value="Galeria de Imagenes" style="whiteSpace=wrap;html=1;aspect=fixed;" vertex="1" parent="l4Ie5-A3Zb9upmFPH6ci-3">
          <mxGeometry y="40" width="380" height="380" as="geometry" />
        </mxCell>
        <UserObject label="Página Principal" placeholders="1" name="Variable" id="l4Ie5-A3Zb9upmFPH6ci-4">
          <mxCell style="text;html=1;strokeColor=none;fillColor=none;align=center;verticalAlign=middle;whiteSpace=wrap;overflow=hidden;" vertex="1" parent="1">
            <mxGeometry x="309" y="100" width="210" height="20" as="geometry" />
          </mxCell>
        </UserObject>
        <mxCell id="l4Ie5-A3Zb9upmFPH6ci-24" style="edgeStyle=orthogonalEdgeStyle;rounded=0;orthogonalLoop=1;jettySize=auto;html=1;exitX=0.5;exitY=1;exitDx=0;exitDy=0;entryX=0.5;entryY=0;entryDx=0;entryDy=0;" edge="1" parent="1" source="l4Ie5-A3Zb9upmFPH6ci-9" target="l4Ie5-A3Zb9upmFPH6ci-10">
          <mxGeometry relative="1" as="geometry" />
        </mxCell>
        <mxCell id="l4Ie5-A3Zb9upmFPH6ci-9" value="Registro" style="text;html=1;align=center;verticalAlign=middle;whiteSpace=wrap;rounded=0;" vertex="1" parent="1">
          <mxGeometry x="384" y="610" width="60" height="30" as="geometry" />
        </mxCell>
        <mxCell id="l4Ie5-A3Zb9upmFPH6ci-10" value="Registro de usuario" style="swimlane;whiteSpace=wrap;html=1;" vertex="1" parent="1">
          <mxGeometry x="224" y="650" width="380" height="430" as="geometry" />
        </mxCell>
        <mxCell id="l4Ie5-A3Zb9upmFPH6ci-11" value="ejemplo@mail.cl" style="rounded=0;whiteSpace=wrap;html=1;" vertex="1" parent="l4Ie5-A3Zb9upmFPH6ci-10">
          <mxGeometry x="10" y="150" width="350" height="30" as="geometry" />
        </mxCell>
        <mxCell id="l4Ie5-A3Zb9upmFPH6ci-12" value="Footer" style="rounded=0;whiteSpace=wrap;html=1;" vertex="1" parent="l4Ie5-A3Zb9upmFPH6ci-10">
          <mxGeometry y="380" width="380" height="50" as="geometry" />
        </mxCell>
        <mxCell id="l4Ie5-A3Zb9upmFPH6ci-13" value="Ingresar correo" style="text;html=1;align=center;verticalAlign=middle;resizable=0;points=[];autosize=1;strokeColor=none;fillColor=none;" vertex="1" parent="l4Ie5-A3Zb9upmFPH6ci-10">
          <mxGeometry x="10" y="120" width="100" height="30" as="geometry" />
        </mxCell>
        <mxCell id="l4Ie5-A3Zb9upmFPH6ci-14" value="Ingresar contraseña nueva" style="text;html=1;align=center;verticalAlign=middle;resizable=0;points=[];autosize=1;strokeColor=none;fillColor=none;" vertex="1" parent="l4Ie5-A3Zb9upmFPH6ci-10">
          <mxGeometry x="10" y="190" width="170" height="30" as="geometry" />
        </mxCell>
        <mxCell id="l4Ie5-A3Zb9upmFPH6ci-16" value="contraseña" style="rounded=0;whiteSpace=wrap;html=1;" vertex="1" parent="l4Ie5-A3Zb9upmFPH6ci-10">
          <mxGeometry x="10" y="220" width="350" height="30" as="geometry" />
        </mxCell>
        <mxCell id="l4Ie5-A3Zb9upmFPH6ci-17" value="Nombre apellido&amp;nbsp;" style="rounded=0;whiteSpace=wrap;html=1;" vertex="1" parent="l4Ie5-A3Zb9upmFPH6ci-10">
          <mxGeometry x="10" y="80" width="350" height="30" as="geometry" />
        </mxCell>
        <mxCell id="l4Ie5-A3Zb9upmFPH6ci-18" value="Ingresar nombre y apellido" style="text;html=1;align=center;verticalAlign=middle;resizable=0;points=[];autosize=1;strokeColor=none;fillColor=none;" vertex="1" parent="l4Ie5-A3Zb9upmFPH6ci-10">
          <mxGeometry x="10" y="50" width="170" height="30" as="geometry" />
        </mxCell>
        <mxCell id="l4Ie5-A3Zb9upmFPH6ci-19" value="Registrarse" style="rounded=0;whiteSpace=wrap;html=1;" vertex="1" parent="l4Ie5-A3Zb9upmFPH6ci-10">
          <mxGeometry x="130" y="300" width="120" height="30" as="geometry" />
        </mxCell>
        <mxCell id="l4Ie5-A3Zb9upmFPH6ci-26" value="Iniciar sesión" style="swimlane;whiteSpace=wrap;html=1;" vertex="1" parent="1">
          <mxGeometry x="224" y="1140" width="380" height="430" as="geometry" />
        </mxCell>
        <mxCell id="l4Ie5-A3Zb9upmFPH6ci-27" value="ejemplo@mail.cl" style="rounded=0;whiteSpace=wrap;html=1;" vertex="1" parent="l4Ie5-A3Zb9upmFPH6ci-26">
          <mxGeometry x="10" y="100" width="350" height="30" as="geometry" />
        </mxCell>
        <mxCell id="l4Ie5-A3Zb9upmFPH6ci-28" value="Footer" style="rounded=0;whiteSpace=wrap;html=1;" vertex="1" parent="l4Ie5-A3Zb9upmFPH6ci-26">
          <mxGeometry y="380" width="380" height="50" as="geometry" />
        </mxCell>
        <mxCell id="l4Ie5-A3Zb9upmFPH6ci-29" value="Ingresar correo" style="text;html=1;align=center;verticalAlign=middle;resizable=0;points=[];autosize=1;strokeColor=none;fillColor=none;" vertex="1" parent="l4Ie5-A3Zb9upmFPH6ci-26">
          <mxGeometry x="10" y="70" width="100" height="30" as="geometry" />
        </mxCell>
        <mxCell id="l4Ie5-A3Zb9upmFPH6ci-30" value="Ingresar contraseña" style="text;html=1;align=center;verticalAlign=middle;resizable=0;points=[];autosize=1;strokeColor=none;fillColor=none;" vertex="1" parent="l4Ie5-A3Zb9upmFPH6ci-26">
          <mxGeometry x="10" y="143" width="130" height="30" as="geometry" />
        </mxCell>
        <mxCell id="l4Ie5-A3Zb9upmFPH6ci-31" value="contraseña" style="rounded=0;whiteSpace=wrap;html=1;" vertex="1" parent="l4Ie5-A3Zb9upmFPH6ci-26">
          <mxGeometry x="10" y="173" width="350" height="30" as="geometry" />
        </mxCell>
        <mxCell id="l4Ie5-A3Zb9upmFPH6ci-34" value="Iniciar sesión" style="rounded=0;whiteSpace=wrap;html=1;" vertex="1" parent="l4Ie5-A3Zb9upmFPH6ci-26">
          <mxGeometry x="130" y="240" width="120" height="30" as="geometry" />
        </mxCell>
        <mxCell id="l4Ie5-A3Zb9upmFPH6ci-35" value="Inicio sesión" style="text;html=1;align=center;verticalAlign=middle;resizable=0;points=[];autosize=1;strokeColor=none;fillColor=none;" vertex="1" parent="1">
          <mxGeometry x="369" y="1110" width="90" height="30" as="geometry" />
        </mxCell>
        <mxCell id="l4Ie5-A3Zb9upmFPH6ci-43" value="Mi perfil&amp;nbsp; &amp;nbsp;&amp;nbsp;" style="swimlane;whiteSpace=wrap;html=1;startSize=40;" vertex="1" parent="1">
          <mxGeometry x="225" y="1630" width="380" height="660" as="geometry" />
        </mxCell>
        <mxCell id="l4Ie5-A3Zb9upmFPH6ci-45" value="Footer" style="rounded=0;whiteSpace=wrap;html=1;" vertex="1" parent="l4Ie5-A3Zb9upmFPH6ci-43">
          <mxGeometry y="610" width="380" height="50" as="geometry" />
        </mxCell>
        <mxCell id="l4Ie5-A3Zb9upmFPH6ci-51" value="Nombre de Usuario" style="rounded=0;whiteSpace=wrap;html=1;" vertex="1" parent="l4Ie5-A3Zb9upmFPH6ci-43">
          <mxGeometry x="130" y="170" width="120" height="30" as="geometry" />
        </mxCell>
        <mxCell id="l4Ie5-A3Zb9upmFPH6ci-52" value="&lt;h1 style=&quot;margin-top: 0px;&quot;&gt;&lt;br&gt;&lt;/h1&gt;&lt;p&gt;&lt;br&gt;&lt;/p&gt;" style="text;html=1;whiteSpace=wrap;overflow=hidden;rounded=0;" vertex="1" parent="l4Ie5-A3Zb9upmFPH6ci-43">
          <mxGeometry x="16" y="200" width="364" height="120" as="geometry" />
        </mxCell>
        <mxCell id="l4Ie5-A3Zb9upmFPH6ci-53" value="Detalles del vendedor" style="rounded=1;whiteSpace=wrap;html=1;" vertex="1" parent="l4Ie5-A3Zb9upmFPH6ci-43">
          <mxGeometry x="20" y="220" width="350" height="100" as="geometry" />
        </mxCell>
        <mxCell id="l4Ie5-A3Zb9upmFPH6ci-54" value="&lt;div&gt;&lt;br&gt;&lt;/div&gt;&lt;div&gt;&lt;br&gt;&lt;/div&gt;&lt;div&gt;&lt;br&gt;&lt;/div&gt;&lt;div&gt;&lt;br&gt;&lt;/div&gt;Foto usuario" style="shape=actor;whiteSpace=wrap;html=1;" vertex="1" parent="l4Ie5-A3Zb9upmFPH6ci-43">
          <mxGeometry x="155" y="50" width="70" height="98" as="geometry" />
        </mxCell>
        <mxCell id="l4Ie5-A3Zb9upmFPH6ci-110" value="Foto Producto" style="swimlane;whiteSpace=wrap;html=1;startSize=70;align=center;" vertex="1" parent="l4Ie5-A3Zb9upmFPH6ci-43">
          <mxGeometry x="262" y="340" width="112" height="160" as="geometry" />
        </mxCell>
        <mxCell id="l4Ie5-A3Zb9upmFPH6ci-111" value="Precio Producto" style="whiteSpace=wrap;html=1;fontSize=8;align=left;fontStyle=1" vertex="1" parent="l4Ie5-A3Zb9upmFPH6ci-110">
          <mxGeometry y="70" width="112" height="30" as="geometry" />
        </mxCell>
        <mxCell id="l4Ie5-A3Zb9upmFPH6ci-112" value="Detalle Producto" style="whiteSpace=wrap;html=1;align=left;fontSize=9;fontStyle=1" vertex="1" parent="l4Ie5-A3Zb9upmFPH6ci-110">
          <mxGeometry y="100" width="112" height="60" as="geometry" />
        </mxCell>
        <mxCell id="l4Ie5-A3Zb9upmFPH6ci-113" value="Foto Producto" style="swimlane;whiteSpace=wrap;html=1;startSize=70;align=center;" vertex="1" parent="l4Ie5-A3Zb9upmFPH6ci-43">
          <mxGeometry x="139" y="340" width="112" height="160" as="geometry" />
        </mxCell>
        <mxCell id="l4Ie5-A3Zb9upmFPH6ci-114" value="Precio Producto" style="whiteSpace=wrap;html=1;fontSize=8;align=left;fontStyle=1" vertex="1" parent="l4Ie5-A3Zb9upmFPH6ci-113">
          <mxGeometry y="70" width="112" height="30" as="geometry" />
        </mxCell>
        <mxCell id="l4Ie5-A3Zb9upmFPH6ci-115" value="Detalle Producto" style="whiteSpace=wrap;html=1;align=left;fontSize=9;fontStyle=1" vertex="1" parent="l4Ie5-A3Zb9upmFPH6ci-113">
          <mxGeometry y="100" width="112" height="60" as="geometry" />
        </mxCell>
        <mxCell id="l4Ie5-A3Zb9upmFPH6ci-116" value="Foto Producto" style="swimlane;whiteSpace=wrap;html=1;startSize=70;align=center;" vertex="1" parent="l4Ie5-A3Zb9upmFPH6ci-43">
          <mxGeometry x="18" y="340" width="112" height="160" as="geometry" />
        </mxCell>
        <mxCell id="l4Ie5-A3Zb9upmFPH6ci-117" value="Precio Producto" style="whiteSpace=wrap;html=1;fontSize=8;align=left;fontStyle=1" vertex="1" parent="l4Ie5-A3Zb9upmFPH6ci-116">
          <mxGeometry y="70" width="112" height="30" as="geometry" />
        </mxCell>
        <mxCell id="l4Ie5-A3Zb9upmFPH6ci-118" value="Detalle Producto" style="whiteSpace=wrap;html=1;align=left;fontSize=9;fontStyle=1" vertex="1" parent="l4Ie5-A3Zb9upmFPH6ci-116">
          <mxGeometry y="100" width="112" height="60" as="geometry" />
        </mxCell>
        <mxCell id="l4Ie5-A3Zb9upmFPH6ci-123" value="" style="group" vertex="1" connectable="0" parent="l4Ie5-A3Zb9upmFPH6ci-43">
          <mxGeometry x="18" y="510" width="112" height="100" as="geometry" />
        </mxCell>
        <mxCell id="l4Ie5-A3Zb9upmFPH6ci-119" value="Foto Producto" style="swimlane;whiteSpace=wrap;html=1;startSize=70;align=center;" vertex="1" parent="l4Ie5-A3Zb9upmFPH6ci-123">
          <mxGeometry width="112" height="70" as="geometry" />
        </mxCell>
        <mxCell id="l4Ie5-A3Zb9upmFPH6ci-122" value="Precio Producto" style="whiteSpace=wrap;html=1;fontSize=8;align=left;fontStyle=1" vertex="1" parent="l4Ie5-A3Zb9upmFPH6ci-123">
          <mxGeometry y="70" width="112" height="30" as="geometry" />
        </mxCell>
        <mxCell id="l4Ie5-A3Zb9upmFPH6ci-124" value="" style="group" vertex="1" connectable="0" parent="l4Ie5-A3Zb9upmFPH6ci-43">
          <mxGeometry x="139" y="510" width="112" height="100" as="geometry" />
        </mxCell>
        <mxCell id="l4Ie5-A3Zb9upmFPH6ci-125" value="Foto Producto" style="swimlane;whiteSpace=wrap;html=1;startSize=70;align=center;" vertex="1" parent="l4Ie5-A3Zb9upmFPH6ci-124">
          <mxGeometry width="112" height="70" as="geometry" />
        </mxCell>
        <mxCell id="l4Ie5-A3Zb9upmFPH6ci-126" value="Precio Producto" style="whiteSpace=wrap;html=1;fontSize=8;align=left;fontStyle=1" vertex="1" parent="l4Ie5-A3Zb9upmFPH6ci-124">
          <mxGeometry y="70" width="112" height="30" as="geometry" />
        </mxCell>
        <mxCell id="l4Ie5-A3Zb9upmFPH6ci-127" value="" style="group" vertex="1" connectable="0" parent="l4Ie5-A3Zb9upmFPH6ci-43">
          <mxGeometry x="262" y="510" width="112" height="100" as="geometry" />
        </mxCell>
        <mxCell id="l4Ie5-A3Zb9upmFPH6ci-128" value="Foto Producto" style="swimlane;whiteSpace=wrap;html=1;startSize=70;align=center;" vertex="1" parent="l4Ie5-A3Zb9upmFPH6ci-127">
          <mxGeometry width="112" height="70" as="geometry" />
        </mxCell>
        <mxCell id="l4Ie5-A3Zb9upmFPH6ci-129" value="Precio Producto" style="whiteSpace=wrap;html=1;fontSize=8;align=left;fontStyle=1" vertex="1" parent="l4Ie5-A3Zb9upmFPH6ci-127">
          <mxGeometry y="70" width="112" height="30" as="geometry" />
        </mxCell>
        <mxCell id="l4Ie5-A3Zb9upmFPH6ci-204" value="Usuario Registrado" style="rounded=0;whiteSpace=wrap;html=1;" vertex="1" parent="l4Ie5-A3Zb9upmFPH6ci-43">
          <mxGeometry x="240" width="140" height="40" as="geometry" />
        </mxCell>
        <mxCell id="l4Ie5-A3Zb9upmFPH6ci-205" value="Menú" style="rounded=0;whiteSpace=wrap;html=1;" vertex="1" parent="l4Ie5-A3Zb9upmFPH6ci-43">
          <mxGeometry width="100" height="40" as="geometry" />
        </mxCell>
        <mxCell id="l4Ie5-A3Zb9upmFPH6ci-130" value="Perfil" style="text;html=1;align=center;verticalAlign=middle;resizable=0;points=[];autosize=1;strokeColor=none;fillColor=none;" vertex="1" parent="1">
          <mxGeometry x="389" y="1598" width="50" height="30" as="geometry" />
        </mxCell>
        <mxCell id="l4Ie5-A3Zb9upmFPH6ci-131" value="Crear Publicación" style="swimlane;whiteSpace=wrap;html=1;" vertex="1" parent="1">
          <mxGeometry x="222" y="2350" width="382" height="670" as="geometry" />
        </mxCell>
        <mxCell id="l4Ie5-A3Zb9upmFPH6ci-132" value="Footer" style="rounded=0;whiteSpace=wrap;html=1;" vertex="1" parent="l4Ie5-A3Zb9upmFPH6ci-131">
          <mxGeometry y="610" width="382" height="60" as="geometry" />
        </mxCell>
        <mxCell id="l4Ie5-A3Zb9upmFPH6ci-160" value="Insertar Imagen a publicar" style="whiteSpace=wrap;html=1;aspect=fixed;" vertex="1" parent="l4Ie5-A3Zb9upmFPH6ci-131">
          <mxGeometry x="121" y="60" width="140" height="140" as="geometry" />
        </mxCell>
        <mxCell id="l4Ie5-A3Zb9upmFPH6ci-161" value="Insertar Titulo" style="rounded=0;whiteSpace=wrap;html=1;" vertex="1" parent="l4Ie5-A3Zb9upmFPH6ci-131">
          <mxGeometry x="28" y="250" width="322" height="50" as="geometry" />
        </mxCell>
        <mxCell id="l4Ie5-A3Zb9upmFPH6ci-167" value="Insertar Precio" style="rounded=0;whiteSpace=wrap;html=1;" vertex="1" parent="l4Ie5-A3Zb9upmFPH6ci-131">
          <mxGeometry x="28" y="320" width="322" height="50" as="geometry" />
        </mxCell>
        <mxCell id="l4Ie5-A3Zb9upmFPH6ci-168" value="Insertar Categoria" style="rounded=0;whiteSpace=wrap;html=1;" vertex="1" parent="l4Ie5-A3Zb9upmFPH6ci-131">
          <mxGeometry x="31" y="390" width="322" height="50" as="geometry" />
        </mxCell>
        <mxCell id="l4Ie5-A3Zb9upmFPH6ci-169" value="Publicar" style="rounded=1;whiteSpace=wrap;html=1;" vertex="1" parent="l4Ie5-A3Zb9upmFPH6ci-131">
          <mxGeometry x="131" y="470" width="120" height="60" as="geometry" />
        </mxCell>
        <mxCell id="l4Ie5-A3Zb9upmFPH6ci-156" value="Formulario Crear Publicación" style="text;html=1;align=center;verticalAlign=middle;resizable=0;points=[];autosize=1;strokeColor=none;fillColor=none;" vertex="1" parent="1">
          <mxGeometry x="323" y="2320" width="180" height="30" as="geometry" />
        </mxCell>
        <mxCell id="l4Ie5-A3Zb9upmFPH6ci-170" value="Ventas" style="swimlane;whiteSpace=wrap;html=1;startSize=40;" vertex="1" parent="1">
          <mxGeometry x="224" y="3070" width="382" height="660" as="geometry" />
        </mxCell>
        <mxCell id="l4Ie5-A3Zb9upmFPH6ci-171" value="Footer" style="rounded=0;whiteSpace=wrap;html=1;" vertex="1" parent="l4Ie5-A3Zb9upmFPH6ci-170">
          <mxGeometry y="610" width="382" height="50" as="geometry" />
        </mxCell>
        <mxCell id="l4Ie5-A3Zb9upmFPH6ci-173" value="&lt;h1 style=&quot;margin-top: 0px;&quot;&gt;&lt;br&gt;&lt;/h1&gt;&lt;p&gt;&lt;br&gt;&lt;/p&gt;" style="text;html=1;whiteSpace=wrap;overflow=hidden;rounded=0;" vertex="1" parent="l4Ie5-A3Zb9upmFPH6ci-170">
          <mxGeometry x="16" y="200" width="364" height="120" as="geometry" />
        </mxCell>
        <mxCell id="l4Ie5-A3Zb9upmFPH6ci-176" value="Foto Producto" style="swimlane;whiteSpace=wrap;html=1;startSize=70;align=center;" vertex="1" parent="l4Ie5-A3Zb9upmFPH6ci-170">
          <mxGeometry x="262" y="340" width="112" height="160" as="geometry" />
        </mxCell>
        <mxCell id="l4Ie5-A3Zb9upmFPH6ci-177" value="Precio Producto" style="whiteSpace=wrap;html=1;fontSize=8;align=left;fontStyle=1" vertex="1" parent="l4Ie5-A3Zb9upmFPH6ci-176">
          <mxGeometry y="70" width="112" height="30" as="geometry" />
        </mxCell>
        <mxCell id="l4Ie5-A3Zb9upmFPH6ci-178" value="Detalle Producto" style="whiteSpace=wrap;html=1;align=left;fontSize=9;fontStyle=1" vertex="1" parent="l4Ie5-A3Zb9upmFPH6ci-176">
          <mxGeometry y="100" width="112" height="60" as="geometry" />
        </mxCell>
        <mxCell id="l4Ie5-A3Zb9upmFPH6ci-179" value="Foto Producto" style="swimlane;whiteSpace=wrap;html=1;startSize=70;align=center;" vertex="1" parent="l4Ie5-A3Zb9upmFPH6ci-170">
          <mxGeometry x="139" y="340" width="112" height="160" as="geometry" />
        </mxCell>
        <mxCell id="l4Ie5-A3Zb9upmFPH6ci-180" value="Precio Producto" style="whiteSpace=wrap;html=1;fontSize=8;align=left;fontStyle=1" vertex="1" parent="l4Ie5-A3Zb9upmFPH6ci-179">
          <mxGeometry y="70" width="112" height="30" as="geometry" />
        </mxCell>
        <mxCell id="l4Ie5-A3Zb9upmFPH6ci-181" value="Detalle Producto" style="whiteSpace=wrap;html=1;align=left;fontSize=9;fontStyle=1" vertex="1" parent="l4Ie5-A3Zb9upmFPH6ci-179">
          <mxGeometry y="100" width="112" height="60" as="geometry" />
        </mxCell>
        <mxCell id="l4Ie5-A3Zb9upmFPH6ci-182" value="Foto Producto" style="swimlane;whiteSpace=wrap;html=1;startSize=70;align=center;" vertex="1" parent="l4Ie5-A3Zb9upmFPH6ci-170">
          <mxGeometry x="18" y="340" width="112" height="160" as="geometry" />
        </mxCell>
        <mxCell id="l4Ie5-A3Zb9upmFPH6ci-183" value="Precio Producto" style="whiteSpace=wrap;html=1;fontSize=8;align=left;fontStyle=1" vertex="1" parent="l4Ie5-A3Zb9upmFPH6ci-182">
          <mxGeometry y="70" width="112" height="30" as="geometry" />
        </mxCell>
        <mxCell id="l4Ie5-A3Zb9upmFPH6ci-184" value="Detalle Producto" style="whiteSpace=wrap;html=1;align=left;fontSize=9;fontStyle=1" vertex="1" parent="l4Ie5-A3Zb9upmFPH6ci-182">
          <mxGeometry y="100" width="112" height="60" as="geometry" />
        </mxCell>
        <mxCell id="l4Ie5-A3Zb9upmFPH6ci-185" value="" style="group" vertex="1" connectable="0" parent="l4Ie5-A3Zb9upmFPH6ci-170">
          <mxGeometry x="18" y="510" width="112" height="100" as="geometry" />
        </mxCell>
        <mxCell id="l4Ie5-A3Zb9upmFPH6ci-186" value="Foto Producto" style="swimlane;whiteSpace=wrap;html=1;startSize=70;align=center;" vertex="1" parent="l4Ie5-A3Zb9upmFPH6ci-185">
          <mxGeometry width="112" height="70" as="geometry" />
        </mxCell>
        <mxCell id="l4Ie5-A3Zb9upmFPH6ci-187" value="Precio Producto" style="whiteSpace=wrap;html=1;fontSize=8;align=left;fontStyle=1" vertex="1" parent="l4Ie5-A3Zb9upmFPH6ci-185">
          <mxGeometry y="70" width="112" height="30" as="geometry" />
        </mxCell>
        <mxCell id="l4Ie5-A3Zb9upmFPH6ci-188" value="" style="group" vertex="1" connectable="0" parent="l4Ie5-A3Zb9upmFPH6ci-170">
          <mxGeometry x="139" y="510" width="112" height="100" as="geometry" />
        </mxCell>
        <mxCell id="l4Ie5-A3Zb9upmFPH6ci-189" value="Foto Producto" style="swimlane;whiteSpace=wrap;html=1;startSize=70;align=center;" vertex="1" parent="l4Ie5-A3Zb9upmFPH6ci-188">
          <mxGeometry width="112" height="70" as="geometry" />
        </mxCell>
        <mxCell id="l4Ie5-A3Zb9upmFPH6ci-190" value="Precio Producto" style="whiteSpace=wrap;html=1;fontSize=8;align=left;fontStyle=1" vertex="1" parent="l4Ie5-A3Zb9upmFPH6ci-188">
          <mxGeometry y="70" width="112" height="30" as="geometry" />
        </mxCell>
        <mxCell id="l4Ie5-A3Zb9upmFPH6ci-191" value="" style="group" vertex="1" connectable="0" parent="l4Ie5-A3Zb9upmFPH6ci-170">
          <mxGeometry x="262" y="510" width="112" height="100" as="geometry" />
        </mxCell>
        <mxCell id="l4Ie5-A3Zb9upmFPH6ci-192" value="Foto Producto" style="swimlane;whiteSpace=wrap;html=1;startSize=70;align=center;" vertex="1" parent="l4Ie5-A3Zb9upmFPH6ci-191">
          <mxGeometry width="112" height="70" as="geometry" />
        </mxCell>
        <mxCell id="l4Ie5-A3Zb9upmFPH6ci-193" value="Precio Producto" style="whiteSpace=wrap;html=1;fontSize=8;align=left;fontStyle=1" vertex="1" parent="l4Ie5-A3Zb9upmFPH6ci-191">
          <mxGeometry y="70" width="112" height="30" as="geometry" />
        </mxCell>
        <mxCell id="l4Ie5-A3Zb9upmFPH6ci-195" value="Foto Producto" style="swimlane;whiteSpace=wrap;html=1;startSize=70;align=center;" vertex="1" parent="l4Ie5-A3Zb9upmFPH6ci-170">
          <mxGeometry x="18" y="170" width="112" height="160" as="geometry" />
        </mxCell>
        <mxCell id="l4Ie5-A3Zb9upmFPH6ci-196" value="Precio Producto" style="whiteSpace=wrap;html=1;fontSize=8;align=left;fontStyle=1" vertex="1" parent="l4Ie5-A3Zb9upmFPH6ci-195">
          <mxGeometry y="70" width="112" height="30" as="geometry" />
        </mxCell>
        <mxCell id="l4Ie5-A3Zb9upmFPH6ci-197" value="Detalle Producto" style="whiteSpace=wrap;html=1;align=left;fontSize=9;fontStyle=1" vertex="1" parent="l4Ie5-A3Zb9upmFPH6ci-195">
          <mxGeometry y="100" width="112" height="60" as="geometry" />
        </mxCell>
        <mxCell id="l4Ie5-A3Zb9upmFPH6ci-198" value="Foto Producto" style="swimlane;whiteSpace=wrap;html=1;startSize=70;align=center;" vertex="1" parent="l4Ie5-A3Zb9upmFPH6ci-170">
          <mxGeometry x="139" y="170" width="112" height="160" as="geometry" />
        </mxCell>
        <mxCell id="l4Ie5-A3Zb9upmFPH6ci-199" value="Precio Producto" style="whiteSpace=wrap;html=1;fontSize=8;align=left;fontStyle=1" vertex="1" parent="l4Ie5-A3Zb9upmFPH6ci-198">
          <mxGeometry y="70" width="112" height="30" as="geometry" />
        </mxCell>
        <mxCell id="l4Ie5-A3Zb9upmFPH6ci-200" value="Detalle Producto" style="whiteSpace=wrap;html=1;align=left;fontSize=9;fontStyle=1" vertex="1" parent="l4Ie5-A3Zb9upmFPH6ci-198">
          <mxGeometry y="100" width="112" height="60" as="geometry" />
        </mxCell>
        <mxCell id="l4Ie5-A3Zb9upmFPH6ci-201" value="Foto Producto" style="swimlane;whiteSpace=wrap;html=1;startSize=70;align=center;" vertex="1" parent="l4Ie5-A3Zb9upmFPH6ci-170">
          <mxGeometry x="262" y="170" width="112" height="160" as="geometry" />
        </mxCell>
        <mxCell id="l4Ie5-A3Zb9upmFPH6ci-202" value="Precio Producto" style="whiteSpace=wrap;html=1;fontSize=8;align=left;fontStyle=1" vertex="1" parent="l4Ie5-A3Zb9upmFPH6ci-201">
          <mxGeometry y="70" width="112" height="30" as="geometry" />
        </mxCell>
        <mxCell id="l4Ie5-A3Zb9upmFPH6ci-203" value="Detalle Producto" style="whiteSpace=wrap;html=1;align=left;fontSize=9;fontStyle=1" vertex="1" parent="l4Ie5-A3Zb9upmFPH6ci-201">
          <mxGeometry y="100" width="112" height="60" as="geometry" />
        </mxCell>
        <mxCell id="l4Ie5-A3Zb9upmFPH6ci-206" value="Buscador" style="rounded=0;whiteSpace=wrap;html=1;" vertex="1" parent="l4Ie5-A3Zb9upmFPH6ci-170">
          <mxGeometry x="16.5" y="60" width="357" height="40" as="geometry" />
        </mxCell>
        <mxCell id="l4Ie5-A3Zb9upmFPH6ci-209" value="Usuario Registrado" style="rounded=0;whiteSpace=wrap;html=1;" vertex="1" parent="l4Ie5-A3Zb9upmFPH6ci-170">
          <mxGeometry x="262" width="120" height="40" as="geometry" />
        </mxCell>
        <mxCell id="l4Ie5-A3Zb9upmFPH6ci-210" value="Menú" style="rounded=0;whiteSpace=wrap;html=1;" vertex="1" parent="l4Ie5-A3Zb9upmFPH6ci-170">
          <mxGeometry width="106" height="40" as="geometry" />
        </mxCell>
        <mxCell id="l4Ie5-A3Zb9upmFPH6ci-211" value="Filtrar" style="rounded=0;whiteSpace=wrap;html=1;" vertex="1" parent="l4Ie5-A3Zb9upmFPH6ci-170">
          <mxGeometry x="18" y="120" width="86" height="20" as="geometry" />
        </mxCell>
        <mxCell id="l4Ie5-A3Zb9upmFPH6ci-212" value="Ordenar" style="rounded=0;whiteSpace=wrap;html=1;" vertex="1" parent="l4Ie5-A3Zb9upmFPH6ci-170">
          <mxGeometry x="107" y="120" width="86" height="20" as="geometry" />
        </mxCell>
        <mxCell id="l4Ie5-A3Zb9upmFPH6ci-194" value="Galeria de Publicaciones" style="text;html=1;align=center;verticalAlign=middle;resizable=0;points=[];autosize=1;strokeColor=none;fillColor=none;" vertex="1" parent="1">
          <mxGeometry x="333" y="3028" width="160" height="30" as="geometry" />
        </mxCell>
        <mxCell id="l4Ie5-A3Zb9upmFPH6ci-220" value="Detalle Productos" style="text;html=1;align=center;verticalAlign=middle;resizable=0;points=[];autosize=1;strokeColor=none;fillColor=none;" vertex="1" parent="1">
          <mxGeometry x="353" y="3750" width="120" height="30" as="geometry" />
        </mxCell>
        <mxCell id="l4Ie5-A3Zb9upmFPH6ci-221" value="Productos" style="swimlane;whiteSpace=wrap;html=1;startSize=40;" vertex="1" parent="1">
          <mxGeometry x="219" y="3790" width="390" height="660" as="geometry" />
        </mxCell>
        <mxCell id="l4Ie5-A3Zb9upmFPH6ci-222" value="Footer" style="rounded=0;whiteSpace=wrap;html=1;" vertex="1" parent="l4Ie5-A3Zb9upmFPH6ci-221">
          <mxGeometry y="610" width="390" height="50" as="geometry" />
        </mxCell>
        <mxCell id="l4Ie5-A3Zb9upmFPH6ci-225" value="Detalles del Producto" style="rounded=1;whiteSpace=wrap;html=1;" vertex="1" parent="l4Ie5-A3Zb9upmFPH6ci-221">
          <mxGeometry x="131" y="80" width="250" height="170" as="geometry" />
        </mxCell>
        <mxCell id="l4Ie5-A3Zb9upmFPH6ci-245" value="Usuario Registrado" style="rounded=0;whiteSpace=wrap;html=1;" vertex="1" parent="l4Ie5-A3Zb9upmFPH6ci-221">
          <mxGeometry x="260" width="130" height="40" as="geometry" />
        </mxCell>
        <mxCell id="l4Ie5-A3Zb9upmFPH6ci-246" value="Menú" style="rounded=0;whiteSpace=wrap;html=1;" vertex="1" parent="l4Ie5-A3Zb9upmFPH6ci-221">
          <mxGeometry width="120" height="40" as="geometry" />
        </mxCell>
        <mxCell id="l4Ie5-A3Zb9upmFPH6ci-247" value="Foto del producto" style="rounded=1;whiteSpace=wrap;html=1;" vertex="1" parent="l4Ie5-A3Zb9upmFPH6ci-221">
          <mxGeometry x="7" y="80" width="120" height="170" as="geometry" />
        </mxCell>
        <mxCell id="l4Ie5-A3Zb9upmFPH6ci-248" value="Eliminar Publicación" style="rounded=1;whiteSpace=wrap;html=1;" vertex="1" parent="l4Ie5-A3Zb9upmFPH6ci-221">
          <mxGeometry x="170" y="272" width="196" height="38" as="geometry" />
        </mxCell>
        <mxCell id="l4Ie5-A3Zb9upmFPH6ci-249" value="Volver a pusblicar" style="rounded=1;whiteSpace=wrap;html=1;" vertex="1" parent="l4Ie5-A3Zb9upmFPH6ci-221">
          <mxGeometry x="170" y="320" width="196" height="38" as="geometry" />
        </mxCell>
        <mxCell id="l4Ie5-A3Zb9upmFPH6ci-255" value="Detalles del Producto" style="rounded=1;whiteSpace=wrap;html=1;" vertex="1" parent="l4Ie5-A3Zb9upmFPH6ci-221">
          <mxGeometry x="132" y="370" width="250" height="170" as="geometry" />
        </mxCell>
        <mxCell id="l4Ie5-A3Zb9upmFPH6ci-256" value="Foto del producto" style="rounded=1;whiteSpace=wrap;html=1;" vertex="1" parent="l4Ie5-A3Zb9upmFPH6ci-221">
          <mxGeometry x="8" y="370" width="120" height="170" as="geometry" />
        </mxCell>
        <mxCell id="l4Ie5-A3Zb9upmFPH6ci-257" value="Eliminar Publicación" style="rounded=1;whiteSpace=wrap;html=1;" vertex="1" parent="l4Ie5-A3Zb9upmFPH6ci-221">
          <mxGeometry x="171" y="562" width="196" height="38" as="geometry" />
        </mxCell>
        <mxCell id="l4Ie5-A3Zb9upmFPH6ci-251" value="Menú" style="swimlane;fontStyle=0;childLayout=stackLayout;horizontal=1;startSize=30;horizontalStack=0;resizeParent=1;resizeParentMax=0;resizeLast=0;collapsible=1;marginBottom=0;whiteSpace=wrap;html=1;" vertex="1" parent="1">
          <mxGeometry x="70" y="1630" width="140" height="120" as="geometry" />
        </mxCell>
        <mxCell id="l4Ie5-A3Zb9upmFPH6ci-252" value="Mi Perfil" style="text;strokeColor=none;fillColor=none;align=left;verticalAlign=middle;spacingLeft=4;spacingRight=4;overflow=hidden;points=[[0,0.5],[1,0.5]];portConstraint=eastwest;rotatable=0;whiteSpace=wrap;html=1;" vertex="1" parent="l4Ie5-A3Zb9upmFPH6ci-251">
          <mxGeometry y="30" width="140" height="30" as="geometry" />
        </mxCell>
        <mxCell id="l4Ie5-A3Zb9upmFPH6ci-253" value="Tienda" style="text;strokeColor=none;fillColor=none;align=left;verticalAlign=middle;spacingLeft=4;spacingRight=4;overflow=hidden;points=[[0,0.5],[1,0.5]];portConstraint=eastwest;rotatable=0;whiteSpace=wrap;html=1;" vertex="1" parent="l4Ie5-A3Zb9upmFPH6ci-251">
          <mxGeometry y="60" width="140" height="30" as="geometry" />
        </mxCell>
        <mxCell id="l4Ie5-A3Zb9upmFPH6ci-254" value="Mis publicaicones" style="text;strokeColor=none;fillColor=none;align=left;verticalAlign=middle;spacingLeft=4;spacingRight=4;overflow=hidden;points=[[0,0.5],[1,0.5]];portConstraint=eastwest;rotatable=0;whiteSpace=wrap;html=1;" vertex="1" parent="l4Ie5-A3Zb9upmFPH6ci-251">
          <mxGeometry y="90" width="140" height="30" as="geometry" />
        </mxCell>
        <mxCell id="l4Ie5-A3Zb9upmFPH6ci-260" value="" style="shape=curlyBracket;whiteSpace=wrap;html=1;rounded=1;labelPosition=left;verticalLabelPosition=middle;align=right;verticalAlign=middle;" vertex="1" parent="1">
          <mxGeometry x="140" y="130" width="20" height="1440" as="geometry" />
        </mxCell>
        <mxCell id="l4Ie5-A3Zb9upmFPH6ci-261" value="" style="shape=curlyBracket;whiteSpace=wrap;html=1;rounded=1;flipH=1;labelPosition=right;verticalLabelPosition=middle;align=left;verticalAlign=middle;" vertex="1" parent="1">
          <mxGeometry x="640" y="120" width="20" height="1460" as="geometry" />
        </mxCell>
        <mxCell id="l4Ie5-A3Zb9upmFPH6ci-262" value="PUBLICA" style="text;html=1;align=center;verticalAlign=middle;resizable=0;points=[];autosize=1;strokeColor=none;fillColor=none;fontSize=20;fontStyle=1" vertex="1" parent="1">
          <mxGeometry x="650" y="830" width="110" height="40" as="geometry" />
        </mxCell>
        <mxCell id="l4Ie5-A3Zb9upmFPH6ci-263" value="" style="shape=curlyBracket;whiteSpace=wrap;html=1;rounded=1;labelPosition=left;verticalLabelPosition=middle;align=right;verticalAlign=middle;" vertex="1" parent="1">
          <mxGeometry x="30" y="1628" width="20" height="2842" as="geometry" />
        </mxCell>
        <mxCell id="l4Ie5-A3Zb9upmFPH6ci-265" value="" style="shape=curlyBracket;whiteSpace=wrap;html=1;rounded=1;flipH=1;labelPosition=right;verticalLabelPosition=middle;align=left;verticalAlign=middle;" vertex="1" parent="1">
          <mxGeometry x="640" y="1628" width="20" height="2842" as="geometry" />
        </mxCell>
        <mxCell id="l4Ie5-A3Zb9upmFPH6ci-266" value="&lt;b&gt;&lt;font style=&quot;font-size: 18px;&quot;&gt;PRIVADA&lt;/font&gt;&lt;/b&gt;" style="text;html=1;align=center;verticalAlign=middle;resizable=0;points=[];autosize=1;strokeColor=none;fillColor=none;" vertex="1" parent="1">
          <mxGeometry x="660" y="3030" width="100" height="40" as="geometry" />
        </mxCell>
      </root>
    </mxGraphModel>
  </diagram>
</mxfile>
